<svg width="13" height="12" viewBox="0 0 13 12" fill="none" xmlns="http://www.w3.org/2000/svg">
<g filter="url(#filter0_i_15_158)">
<path d="M7.25892 4.05042C7.21261 2.25057 5.716 0.829042 3.91615 0.875353C2.11629 0.921663 0.694764 2.41828 0.741075 4.21813L7.25892 4.05042ZM6.69099 7.32612L5.02192 10.1264L6.79016 11.1804L8.50187 10.0369L6.69099 7.32612ZM12.4732 3.91626C12.4269 2.1164 10.9303 0.694877 9.13043 0.741188C7.33057 0.787498 5.90904 2.28411 5.95536 4.08397L12.4732 3.91626ZM0.741075 4.21813C0.773611 5.48261 1.29846 6.49225 1.73999 7.14324C2.19749 7.81778 2.74197 8.36659 3.18915 8.76609C3.64882 9.17674 4.09262 9.50628 4.41468 9.73032C4.5786 9.84435 4.71824 9.93608 4.82211 10.0024C4.87421 10.0357 4.91778 10.0629 4.95144 10.0836C4.96828 10.094 4.98268 10.1028 4.99448 10.1099C5.00037 10.1135 5.00562 10.1167 5.0102 10.1194C5.01249 10.1208 5.01462 10.1221 5.01657 10.1232C5.01755 10.1238 5.01848 10.1244 5.01937 10.1249C5.01982 10.1252 5.02046 10.1256 5.02068 10.1257C5.0213 10.1261 5.02192 10.1264 6.69099 7.32612C8.36007 4.5258 8.36066 4.52615 8.36125 4.5265C8.36143 4.52661 8.36201 4.52695 8.36237 4.52717C8.3631 4.52761 8.3638 4.52802 8.36445 4.52841C8.36576 4.5292 8.36693 4.5299 8.36794 4.53051C8.36998 4.53173 8.37142 4.5326 8.37231 4.53314C8.37407 4.53421 8.37359 4.53392 8.37102 4.53234C8.36584 4.52915 8.35245 4.52085 8.33203 4.5078C8.29084 4.48149 8.22317 4.43724 8.13804 4.37803C7.96202 4.25558 7.74086 4.08953 7.53296 3.9038C7.31259 3.70693 7.1869 3.55857 7.13596 3.48345C7.06904 3.38478 7.24714 3.59228 7.25892 4.05042L0.741075 4.21813ZM6.69099 7.32612C8.50187 10.0369 8.50247 10.0365 8.50307 10.0361C8.50329 10.036 8.5039 10.0355 8.50434 10.0353C8.5052 10.0347 8.5061 10.0341 8.50705 10.0334C8.50894 10.0322 8.51099 10.0308 8.51321 10.0293C8.51764 10.0263 8.52272 10.0229 8.52843 10.019C8.53984 10.0113 8.55377 10.0018 8.57006 9.99053C8.6026 9.9681 8.64472 9.93869 8.69504 9.90278C8.79536 9.83117 8.9301 9.73239 9.08794 9.61008C9.39804 9.36977 9.82431 9.01784 10.2623 8.5841C10.6883 8.16213 11.2038 7.58604 11.626 6.88887C12.0335 6.21603 12.5057 5.18074 12.4732 3.91626L5.95536 4.08397C5.94357 3.62582 6.11076 3.40944 6.049 3.51142C6.00199 3.58906 5.8841 3.74368 5.67414 3.95163C5.47607 4.1478 5.26374 4.325 5.09425 4.45635C5.01228 4.51986 4.94697 4.56753 4.9072 4.59592C4.88747 4.61 4.87452 4.61899 4.86952 4.62243C4.86703 4.62415 4.86656 4.62446 4.86827 4.6233C4.86912 4.62272 4.87053 4.62177 4.87249 4.62045C4.87348 4.61978 4.8746 4.61903 4.87587 4.61818C4.87651 4.61775 4.87718 4.6173 4.87789 4.61683C4.87824 4.61659 4.8788 4.61622 4.87897 4.6161C4.87954 4.61572 4.88012 4.61534 6.69099 7.32612Z" fill="#F33232"/>
</g>
<defs>
<filter id="filter0_i_15_158" x="0.739746" y="0.73999" width="11.7349" height="11.7444" filterUnits="userSpaceOnUse" color-interpolation-filters="sRGB">
<feFlood flood-opacity="0" result="BackgroundImageFix"/>
<feBlend mode="normal" in="SourceGraphic" in2="BackgroundImageFix" result="shape"/>
<feColorMatrix in="SourceAlpha" type="matrix" values="0 0 0 0 0 0 0 0 0 0 0 0 0 0 0 0 0 0 127 0" result="hardAlpha"/>
<feOffset dy="1.304"/>
<feGaussianBlur stdDeviation="1.0432"/>
<feComposite in2="hardAlpha" operator="arithmetic" k2="-1" k3="1"/>
<feColorMatrix type="matrix" values="0 0 0 0 1 0 0 0 0 1 0 0 0 0 1 0 0 0 0.55 0"/>
<feBlend mode="normal" in2="shape" result="effect1_innerShadow_15_158"/>
</filter>
</defs>
</svg>
